<svg width="450.587" height="96.29" viewBox="0 0 450.587 96.29" xmlns="http://www.w3.org/2000/svg"><g id="svgGroup" stroke-linecap="round" fill-rule="evenodd" font-size="9pt" stroke="#001858" stroke-width="1.mm" fill="#000000" style="stroke:#001858;stroke-width:1.mm;fill:#000000"><path d="M 284.815 0 L 284.815 34.473 A 23.369 23.369 0 0 1 288.812 28.007 A 21.036 21.036 0 0 1 292.432 24.756 A 18.82 18.82 0 0 1 303.565 21.191 A 23.766 23.766 0 0 1 308.393 21.649 Q 313.335 22.676 316.187 26.001 Q 319.27 29.594 320.077 35.926 A 37.981 37.981 0 0 1 320.362 40.527 L 320.362 75 L 317.725 75 L 317.725 40.43 A 34.076 34.076 0 0 0 317.431 36 Q 316.715 30.787 314.259 27.856 A 10.569 10.569 0 0 0 309.41 24.646 Q 306.84 23.779 303.419 23.779 Q 296.583 23.779 291.578 28.638 A 23.584 23.584 0 0 0 285.778 37.833 A 30.03 30.03 0 0 0 284.815 41.162 L 284.815 75 L 282.178 75 L 282.178 0 L 284.815 0 Z M 75.294 48.73 L 75.294 48.047 Q 75.294 39.126 77.942 32.963 A 22.678 22.678 0 0 1 80.616 28.296 A 16.941 16.941 0 0 1 92.954 21.303 A 22.432 22.432 0 0 1 95.216 21.191 A 21.956 21.956 0 0 1 101.364 22.025 A 18.865 18.865 0 0 1 105.714 23.901 A 19.034 19.034 0 0 1 111.955 29.928 A 23.685 23.685 0 0 1 113.087 31.836 L 113.087 22.168 L 115.772 22.168 L 115.772 74.072 A 32.732 32.732 0 0 1 115.152 80.647 Q 114.333 84.64 112.432 87.713 A 18.115 18.115 0 0 1 110.401 90.405 A 17.717 17.717 0 0 1 99.654 96.008 A 25.385 25.385 0 0 1 95.802 96.289 A 21.428 21.428 0 0 1 88.617 95.104 A 19.949 19.949 0 0 1 86.06 93.994 A 21.394 21.394 0 0 1 78.925 87.948 A 24.999 24.999 0 0 1 78.516 87.402 L 80.372 85.645 A 26.584 26.584 0 0 0 83.594 89.093 A 20.592 20.592 0 0 0 87.11 91.626 A 15.772 15.772 0 0 0 92.463 93.456 A 20.664 20.664 0 0 0 95.704 93.701 A 21.52 21.52 0 0 0 100.991 93.089 A 14.688 14.688 0 0 0 108.399 88.745 A 16.624 16.624 0 0 0 111.984 82.329 Q 112.759 79.825 112.992 76.817 A 33.869 33.869 0 0 0 113.087 74.756 L 113.087 66.65 A 18.437 18.437 0 0 1 105.689 73.56 A 21.601 21.601 0 0 1 97.994 75.826 A 26.787 26.787 0 0 1 95.118 75.977 Q 86.187 75.977 80.907 69.09 A 21.586 21.586 0 0 1 80.616 68.701 Q 75.294 61.426 75.294 48.73 Z M 375.001 75 L 372.315 75 L 372.315 66.455 A 17.245 17.245 0 0 1 365.479 73.413 Q 361.566 75.646 355.838 75.934 A 34.584 34.584 0 0 1 354.102 75.977 Q 345.46 75.977 341.138 70.923 A 16.507 16.507 0 0 1 338.089 65.396 Q 336.773 61.488 336.719 56.201 L 336.719 22.168 L 339.356 22.168 L 339.356 56.299 A 30.839 30.839 0 0 0 339.761 61.094 Q 340.18 63.562 341.031 65.544 A 13.418 13.418 0 0 0 343.165 69.019 Q 346.856 73.317 353.93 73.34 A 23.484 23.484 0 0 0 354.005 73.34 A 26.241 26.241 0 0 0 359.27 72.841 Q 362.549 72.17 365.109 70.594 A 15.559 15.559 0 0 0 366.309 69.775 Q 371.046 66.211 372.315 59.326 L 372.315 22.168 L 375.001 22.168 L 375.001 75 Z M 222.022 75 L 218.995 75 A 19.469 19.469 0 0 1 218.48 72.608 Q 218.083 70.077 218.027 66.523 A 75.893 75.893 0 0 1 218.018 65.332 A 21.192 21.192 0 0 1 209.473 73.193 A 25.261 25.261 0 0 1 200.547 75.803 A 31.184 31.184 0 0 1 197.218 75.977 A 21.909 21.909 0 0 1 192.126 75.417 A 15.188 15.188 0 0 1 185.426 71.997 A 13.087 13.087 0 0 1 180.975 62.417 A 17.684 17.684 0 0 1 180.958 61.621 A 12.945 12.945 0 0 1 185.462 51.564 A 18.209 18.209 0 0 1 187.525 49.976 A 24.449 24.449 0 0 1 194.632 46.817 Q 199.197 45.56 204.981 45.508 L 218.018 45.508 L 218.018 37.793 A 16.919 16.919 0 0 0 217.502 33.492 A 11.754 11.754 0 0 0 213.844 27.49 A 13.598 13.598 0 0 0 208.865 24.772 Q 206.814 24.131 204.336 23.925 A 29.415 29.415 0 0 0 201.905 23.828 A 23.218 23.218 0 0 0 196.282 24.476 A 17.313 17.313 0 0 0 189.844 27.539 A 13.659 13.659 0 0 0 186.946 30.501 A 10.561 10.561 0 0 0 185.011 36.719 L 182.374 36.621 A 13.049 13.049 0 0 1 186.538 27.004 A 18.869 18.869 0 0 1 188.038 25.684 A 20.616 20.616 0 0 1 198.438 21.406 A 27.195 27.195 0 0 1 201.905 21.191 A 27.694 27.694 0 0 1 207.479 21.719 Q 212.218 22.693 215.479 25.464 A 14.298 14.298 0 0 1 220.298 33.944 A 20.932 20.932 0 0 1 220.655 37.5 L 220.655 62.744 A 87.364 87.364 0 0 0 220.73 66.512 Q 220.961 71.826 221.899 74.259 A 7.322 7.322 0 0 0 222.022 74.561 L 222.022 75 Z M 0.001 48.73 L 0.001 48.047 Q 0.001 39.126 2.649 32.963 A 22.678 22.678 0 0 1 5.323 28.296 A 16.941 16.941 0 0 1 17.661 21.303 A 22.432 22.432 0 0 1 19.923 21.191 A 22.435 22.435 0 0 1 25.849 21.947 A 18.761 18.761 0 0 1 30.445 23.877 A 18.734 18.734 0 0 1 36.267 29.316 A 23.939 23.939 0 0 1 37.843 31.885 L 37.843 0 L 40.479 0 L 40.479 75 L 37.843 75 L 37.843 66.553 A 18.401 18.401 0 0 1 30.469 73.511 A 21.49 21.49 0 0 1 22.724 75.822 A 26.671 26.671 0 0 1 19.825 75.977 Q 10.894 75.977 5.614 69.09 A 21.586 21.586 0 0 1 5.323 68.701 Q 0.001 61.426 0.001 48.73 Z M 432.032 48.242 L 432.032 49.072 A 46.499 46.499 0 0 1 431.403 56.965 Q 430.657 61.289 429.027 64.769 A 23.57 23.57 0 0 1 426.71 68.701 Q 421.602 75.683 412.941 75.965 A 22.592 22.592 0 0 1 412.208 75.977 A 24.645 24.645 0 0 1 406.072 75.239 A 20.665 20.665 0 0 1 401.563 73.511 A 18.616 18.616 0 0 1 394.19 66.65 L 394.19 75 L 391.553 75 L 391.553 0 L 394.19 0 L 394.19 31.787 A 21.484 21.484 0 0 1 397.65 26.953 A 18.145 18.145 0 0 1 401.539 23.877 Q 406.104 21.191 412.11 21.191 A 19.412 19.412 0 0 1 418.995 22.364 A 17.047 17.047 0 0 1 426.71 28.296 A 24.054 24.054 0 0 1 430.394 35.761 Q 432.032 41.119 432.032 48.242 Z M 156.446 7.91 L 159.132 7.91 L 159.132 22.168 L 171.143 22.168 L 171.143 24.854 L 159.132 24.854 L 159.132 62.354 A 27.482 27.482 0 0 0 159.276 65.28 Q 159.647 68.724 160.963 70.654 A 5.801 5.801 0 0 0 164.215 72.962 Q 165.479 73.34 167.091 73.34 A 26.553 26.553 0 0 0 168.832 73.278 Q 169.783 73.215 170.868 73.089 A 56.487 56.487 0 0 0 172.315 72.9 L 172.755 75.391 Q 171.532 75.835 168.986 75.943 A 41.756 41.756 0 0 1 167.237 75.977 A 16.357 16.357 0 0 1 164.255 75.724 Q 162.596 75.415 161.322 74.732 A 7.28 7.28 0 0 1 158.985 72.778 A 9.882 9.882 0 0 1 157.511 70.003 Q 156.477 67.106 156.446 62.695 L 156.446 24.854 L 146.68 24.854 L 146.68 22.168 L 156.446 22.168 L 156.446 7.91 Z M 240.919 0 L 240.919 75 L 238.282 75 L 238.282 0 L 240.919 0 Z M 37.843 61.914 L 37.843 37.158 A 23.643 23.643 0 0 0 34.53 30.64 Q 30.026 24.573 21.919 23.91 A 25.072 25.072 0 0 0 19.874 23.828 A 16.391 16.391 0 0 0 13.984 24.844 Q 10.094 26.329 7.423 29.986 A 18.313 18.313 0 0 0 7.252 30.225 A 21.16 21.16 0 0 0 4.434 36.077 Q 3.538 38.903 3.115 42.363 A 55.377 55.377 0 0 0 2.735 49.072 A 45.954 45.954 0 0 0 3.237 56.086 Q 3.794 59.69 4.972 62.636 A 21.698 21.698 0 0 0 7.178 66.821 A 14.729 14.729 0 0 0 12.256 71.554 Q 15.508 73.34 19.776 73.34 Q 26.319 73.34 30.958 70.435 A 16.778 16.778 0 0 0 37.072 63.623 A 21.313 21.313 0 0 0 37.843 61.914 Z M 394.19 37.402 L 394.19 61.621 A 18.611 18.611 0 0 0 397.239 66.996 A 16.568 16.568 0 0 0 400.904 70.288 A 17.918 17.918 0 0 0 407.316 72.874 A 24.962 24.962 0 0 0 412.257 73.34 A 16.287 16.287 0 0 0 418.061 72.349 Q 422.147 70.803 424.854 66.846 A 21.969 21.969 0 0 0 427.648 60.886 Q 428.524 58.048 428.935 54.602 A 55.506 55.506 0 0 0 429.298 48.047 A 46.703 46.703 0 0 0 428.857 41.42 Q 427.886 34.663 424.781 30.249 A 14.847 14.847 0 0 0 419.416 25.459 Q 416.243 23.828 412.159 23.828 Q 405.518 23.828 400.904 27.246 Q 396.29 30.664 394.19 37.402 Z M 113.087 61.523 L 113.087 37.549 Q 109.129 24.913 97.262 23.914 A 24.985 24.985 0 0 0 95.167 23.828 A 16.603 16.603 0 0 0 89.351 24.804 Q 85.312 26.303 82.582 30.103 A 18.315 18.315 0 0 0 82.496 30.225 A 21.16 21.16 0 0 0 79.678 36.077 Q 78.782 38.903 78.359 42.363 A 55.377 55.377 0 0 0 77.979 49.072 Q 77.979 57.011 80.185 62.564 A 21.319 21.319 0 0 0 82.471 66.87 A 14.885 14.885 0 0 0 87.574 71.567 Q 90.42 73.118 94.024 73.312 A 19.457 19.457 0 0 0 95.069 73.34 A 24.035 24.035 0 0 0 100.539 72.746 A 18.034 18.034 0 0 0 106.446 70.239 Q 111.134 67.139 113.087 61.523 Z M 60.45 22.168 L 60.45 75 L 57.813 75 L 57.813 22.168 L 60.45 22.168 Z M 135.889 22.168 L 135.889 75 L 133.253 75 L 133.253 22.168 L 135.889 22.168 Z M 218.018 60.742 L 218.018 48.193 L 205.811 48.193 A 45.817 45.817 0 0 0 199.289 48.627 Q 195.953 49.107 193.251 50.122 A 19.154 19.154 0 0 0 188.477 52.686 Q 183.594 56.348 183.594 61.816 A 10.373 10.373 0 0 0 186.929 69.539 A 13.856 13.856 0 0 0 187.452 70.02 A 13.488 13.488 0 0 0 194.476 73.191 A 18.378 18.378 0 0 0 197.218 73.389 A 27.815 27.815 0 0 0 203.518 72.707 A 21.288 21.288 0 0 0 209.986 70.068 A 20.566 20.566 0 0 0 218.018 60.742 Z M 445.948 70.679 A 2.673 2.673 0 0 0 445.167 72.607 A 3.205 3.205 0 0 0 445.167 72.642 A 2.587 2.587 0 0 0 445.948 74.512 A 2.685 2.685 0 0 0 446.643 75.019 A 2.657 2.657 0 0 0 447.852 75.293 A 2.673 2.673 0 0 0 449.781 74.512 A 3.081 3.081 0 0 0 449.831 74.463 A 2.546 2.546 0 0 0 450.587 72.607 A 2.738 2.738 0 0 0 450.459 71.763 A 2.69 2.69 0 0 0 449.781 70.679 A 3.244 3.244 0 0 0 449.756 70.654 A 2.627 2.627 0 0 0 447.852 69.873 A 3.087 3.087 0 0 0 447.782 69.874 A 2.546 2.546 0 0 0 445.948 70.679 Z M 57.227 3.735 A 2.673 2.673 0 0 0 56.446 5.664 A 3.205 3.205 0 0 0 56.446 5.699 A 2.587 2.587 0 0 0 57.227 7.568 A 2.685 2.685 0 0 0 57.922 8.076 A 2.657 2.657 0 0 0 59.132 8.35 A 2.673 2.673 0 0 0 61.06 7.568 A 3.081 3.081 0 0 0 61.11 7.519 A 2.546 2.546 0 0 0 61.866 5.664 A 2.738 2.738 0 0 0 61.738 4.82 A 2.69 2.69 0 0 0 61.06 3.735 A 3.244 3.244 0 0 0 61.035 3.71 A 2.627 2.627 0 0 0 59.132 2.93 A 3.087 3.087 0 0 0 59.062 2.93 A 2.546 2.546 0 0 0 57.227 3.735 Z M 132.667 3.735 A 2.673 2.673 0 0 0 131.886 5.664 A 3.205 3.205 0 0 0 131.886 5.699 A 2.587 2.587 0 0 0 132.667 7.568 A 2.685 2.685 0 0 0 133.362 8.076 A 2.657 2.657 0 0 0 134.571 8.35 A 2.673 2.673 0 0 0 136.5 7.568 A 3.081 3.081 0 0 0 136.549 7.519 A 2.546 2.546 0 0 0 137.305 5.664 A 2.738 2.738 0 0 0 137.178 4.82 A 2.69 2.69 0 0 0 136.5 3.735 A 3.244 3.244 0 0 0 136.475 3.71 A 2.627 2.627 0 0 0 134.571 2.93 A 3.087 3.087 0 0 0 134.501 2.93 A 2.546 2.546 0 0 0 132.667 3.735 Z" vector-effect="non-scaling-stroke"/></g></svg>